# xmcd CD database file
#
# Track frame offsets:
#	150
#	17919
#	34095
#	48843
#	63114
#	80421
#	95421
#	111201
#	127656
#	145932
#	165984
#	179034
#	194475
#	209190
#
# Disc length: 2999 seconds
#
# Revision: 0
# Processed by: cddbd v1.5.2PL0 Copyright (c) Steve Scherf et al.
# Submitted via: CDex 1.51
#
DISCID=c00bb50e
DTITLE=Edson and Hudson - Românticas
DYEAR=2007
DGENRE=Sertaneja
TTITLE0=Por que Chora a Tarde
TTITLE1=Porta Retrato
TTITLE2=Bye, Bye, Tristeza
TTITLE3=Azul (Azul)
TTITLE4=Jura (L Luvia)
TTITLE5=Ciúme Exagerado
TTITLE6=Volta
TTITLE7=Mil Razões para Chorar
TTITLE8=Meu Anjo (Angel)
TTITLE9=Você é Tudo que eu Preciso (Um amor que termina assim)
TTITLE10=Te dar Tristeza Nunca mais
TTITLE11=Quer namorar comigo
TTITLE12=Te Quero pra Mim
TTITLE13=Deixa eu Te Amar
EXTD=YEAR: 2007
EXTT0=
EXTT1=
EXTT2=
EXTT3=
EXTT4=
EXTT5=
EXTT6=
EXTT7=
EXTT8=
EXTT9=
EXTT10=
EXTT11=
EXTT12=
EXTT13=
PLAYORDER=
